inDegrees=no
num_controls=7
num_derivatives=13
num_iterations=90
num_multipliers=7
num_parameters=0
num_slacks=7
num_states=26
objective=0.333174
objective_accelerations=0.038270
objective_balance=0.001358
objective_effort=0.028016
objective_height=0.264050
objective_ligament=0.001481
solver_duration=968.225388
status=Solve_Succeeded
success=true
DataType=double
version=3
OpenSimVersion=4.5
endheader
time	/jointset/ground_pelvis/pelvis_tilt/value	/jointset/ground_pelvis/pelvis_tx/value	/jointset/ground_pelvis/pelvis_ty/value	/jointset/hip_r/hip_flexion_r/value	/jointset/hip_r/hip_adduction_r/value	/jointset/hip_r/hip_rotation_r/value	/jointset/back/lumbar_extension/value	/jointset/patellofemoral_r/patellar_flexion_r/value	/jointset/knee_r/knee_flexion_r/value	/jointset/knee_r/knee_adduction_r/value	/jointset/knee_r/knee_rotation_r/value	/jointset/ankle_r/ankle_angle_r/value	/jointset/subtalar_r/subtalar_angle_r/value	/jointset/ground_pelvis/pelvis_tilt/speed	/jointset/ground_pelvis/pelvis_tx/speed	/jointset/ground_pelvis/pelvis_ty/speed	/jointset/hip_r/hip_flexion_r/speed	/jointset/hip_r/hip_adduction_r/speed	/jointset/hip_r/hip_rotation_r/speed	/jointset/back/lumbar_extension/speed	/jointset/patellofemoral_r/patellar_flexion_r/speed	/jointset/knee_r/knee_flexion_r/speed	/jointset/knee_r/knee_adduction_r/speed	/jointset/knee_r/knee_rotation_r/speed	/jointset/ankle_r/ankle_angle_r/speed	/jointset/subtalar_r/subtalar_angle_r/speed	/forceset/tau_hip_flexion_r	/forceset/tau_hip_adduction_r	/forceset/tau_hip_rotation_r	/forceset/tau_knee_flexion_r	/forceset/tau_ankle_angle_r	/forceset/tau_subtalar_angle_r	/forceset/tau_lumbar_extension	lambda_cid13_p0	lambda_cid14_p0	lambda_cid14_p1	lambda_cid14_p2	lambda_cid14_p3	lambda_cid14_p4	lambda_cid14_p5	/jointset/ground_pelvis/pelvis_tilt/accel	/jointset/ground_pelvis/pelvis_tx/accel	/jointset/ground_pelvis/pelvis_ty/accel	/jointset/hip_r/hip_flexion_r/accel	/jointset/hip_r/hip_adduction_r/accel	/jointset/hip_r/hip_rotation_r/accel	/jointset/back/lumbar_extension/accel	/jointset/patellofemoral_r/patellar_flexion_r/accel	/jointset/knee_r/knee_flexion_r/accel	/jointset/knee_r/knee_adduction_r/accel	/jointset/knee_r/knee_rotation_r/accel	/jointset/ankle_r/ankle_angle_r/accel	/jointset/subtalar_r/subtalar_angle_r/accel	gamma_cid13_p0	gamma_cid14_p0	gamma_cid14_p1	gamma_cid14_p2	gamma_cid14_p3	gamma_cid14_p4	gamma_cid14_p5
0	-0.009986520834552421	0.1332551236162847	0.9327664093815722	0.1934211968871041	-0.2350661282033491	-0.2335333352992541	-0.2903787966825928	0.2311786273363485	0.2311786273363406	0.1481314026543284	0.1695836305345759	0.089344008118978	0.05522248795925086	0	0	0	0	0	0	0	0	0	0	0	0	0	0.1158413540258753	-0.04928015557655441	0.004565862167670427	-0.2603546677384024	0.145225172608412	-0.1225439038475098	-0.03462958433107711	-29.86710354695916	-1.28077797555846	-48.80533267063832	2.903139763756736	-2.237543064341338	-610.0803658880081	23.96588663345052	-2.268026469876871	-1.881495395414756	-0.8661481794614366	10.63398970960575	0.3169160602173822	2.210153265056456	-6.353906418802382	10.40717802523248	10.40717802523241	-3.327175771723604	0.4144573166196396	2.894579283133503	1.181056711367505	7.108068236627594e-08	4.792795546041435e-08	-4.597102634373166e-07	4.215198101651803e-07	1.40708840346811e-08	2.359792747613556e-07	-4.814115763092694e-07
0.01	-0.01009401512197093	0.1331628874888173	0.9327242892225699	0.1939395686029601	-0.2350483338850837	-0.2334215341935419	-0.2906978015639731	0.2316895579990342	0.2316895579990293	0.1479635301447589	0.1695993673309805	0.08948755295773232	0.05528359557105038	-0.0214520585605231	-0.01828469360223657	-0.008406460295874767	0.1031411895182442	0.003471233981868352	0.0223261711900981	-0.06335263839360941	0.1017063982331007	0.1017063982331003	-0.03324965707651585	0.00308532758431356	0.02864441334086356	0.01209748676496129	0.1138690276805162	-0.06789024510937987	0.004760245764630184	-0.2615276004296131	0.1445078445883628	-0.1074820831341849	-0.03218629914400729	-29.8721870278411	-0.7597063280800026	-41.9520568833918	1.558456999238222	-4.304337417360871	-611.5868493404125	38.47273786515779	-2.076777438627845	-1.777573745141278	-0.8252120330890668	10.07421229255456	0.3490874206373077	2.238823427571656	-6.25869186697482	9.980396360618984	9.980396360618995	-3.275166157844287	0.2463468332863526	2.839697141264848	1.205466767949936	9.03486749944976e-08	3.973827164739568e-08	-5.781622700411117e-07	4.706714493616511e-07	3.701327633245351e-08	1.073493530647228e-07	-5.689868227910494e-07
0.02	-0.0104146263729008	0.1328926809448246	0.9325986410449211	0.1954733579579185	-0.2349984551563072	-0.2330874764996141	-0.2916368826927587	0.2332031577717119	0.2332031577717123	0.1474728999680316	0.1696441126739924	0.08991560688623286	0.05546195247227742	-0.04262339270053585	-0.03559408330507601	-0.01670560372932863	0.2030835278213169	0.006416882102357863	0.04445131764360418	-0.1240152494805841	0.2005338219970083	0.2005338219970086	-0.06455153344218138	0.005801709326595524	0.0569018179498094	0.0234498578855016	0.1118967013351803	-0.08650033464218529	0.004954629361514144	-0.2627005331208018	0.1437905165683278	-0.09242026242082962	-0.02974301395693059	-29.88693525277778	-0.1563744438573693	-35.10796137695217	0.2421772739060873	-6.288704831356643	-611.7319910511318	52.62643802909094	-2.211881585774643	-1.686434615535463	-0.8446848069772479	9.994219466571485	0.2117988879416032	2.169948317738053	-5.815900957475348	9.831383131393927	9.831383131394061	-2.937619629553527	0.340668148213343	2.81717753674982	1.032033582483254	1.096166676227193e-07	3.154858783437702e-08	-6.966142766449067e-07	5.198230885581219e-07	5.995566863022592e-08	-2.128056863191004e-08	-6.565620692728295e-07
0.03	-0.01094536166027695	0.1324532611152894	0.9323902911919641	0.1979917614072231	-0.2349213415175546	-0.2325357055487285	-0.2931693112331109	0.235690923549446	0.2356909235494484	0.1466779564709852	0.1697161728465762	0.09062316379499435	0.05575036609201638	-0.06341888282317298	-0.05222654401237156	-0.02496360827010736	0.3001451435556896	0.008993799204593055	0.06574241091030311	-0.1820830530452051	0.2965530850764054	0.2965530850764059	-0.09427693878995035	0.00860294737983471	0.08444503305926482	0.03417934347786863	0.1055645564269506	-0.08545513479770495	0.005692439767162457	-0.2554348799357499	0.1334649738979664	-0.08821600404744029	-0.0246793147836273	-29.91069427246295	-3.252776919102137	-33.69930339051973	-0.1250744621200071	-4.702447041480409	-611.9928766723385	54.28017679140293	-1.997658972775284	-1.642138926401574	-0.8162492646451722	9.494334961955502	0.2788295969455936	2.084724148780236	-5.74410922399357	9.417238624124234	9.417238624124211	-2.966023941719533	0.2488464278305694	2.698226056469342	1.08532984417155	1.164872489508062e-07	2.772228435120942e-08	-7.054947531111448e-07	5.871176702058184e-07	6.594891915680218e-08	-8.736264502887365e-08	-7.11556032101111e-07
